<svg width="10.000000" height="11.000000" viewBox="0 0 10 11" fill="none" xmlns="http://www.w3.org/2000/svg" xmlns:xlink="http://www.w3.org/1999/xlink">
    <desc>
        Created with Pixso.
    </desc>
    <defs/>
    <path id="Vector" d="M8.07 1.81C8.91 2.66 9.39 3.8 9.39 5L9.39 10.25L6.39 10.25L6.39 5C6.39 4.6 6.23 4.22 5.95 3.93C5.66 3.65 5.28 3.5 4.89 3.5C4.49 3.5 4.11 3.65 3.83 3.93C3.54 4.22 3.39 4.6 3.39 5L3.39 10.25L0.39 10.25L0.39 5C0.39 3.8 0.86 2.66 1.7 1.81C2.55 0.97 3.69 0.5 4.89 0.5C6.08 0.5 7.22 0.97 8.07 1.81Z" stroke="#FFFFFF" stroke-opacity="1.000000" stroke-width="1.000000" stroke-linejoin="round"/>
</svg>
