<svg width="16.000000" height="15.000000" viewBox="0 0 16 15" fill="none" xmlns="http://www.w3.org/2000/svg" xmlns:xlink="http://www.w3.org/1999/xlink">
    <desc>
        Created with Pixso.
    </desc>
    <defs/>
    <path id="Vector" d="M14.07 5.81C14.91 6.66 15.39 7.8 15.39 9L15.39 14.25L12.39 14.25L12.39 9C12.39 8.6 12.23 8.22 11.95 7.93C11.66 7.65 11.28 7.5 10.89 7.5C10.49 7.5 10.11 7.65 9.83 7.93C9.54 8.22 9.39 8.6 9.39 9L9.39 14.25L6.39 14.25L6.39 9C6.39 7.8 6.86 6.66 7.7 5.81C8.55 4.97 9.69 4.5 10.89 4.5C12.08 4.5 13.22 4.97 14.07 5.81Z" stroke="#FFFFFF" stroke-opacity="1.000000" stroke-width="1.000000" stroke-linejoin="round"/>
    <path id="Vector" d="M3.39 5.25L3.39 14.25L0.39 14.25L0.39 5.25L3.39 5.25Z" stroke="#FFFFFF" stroke-opacity="1.000000" stroke-width="1.000000" stroke-linejoin="round"/>
    <path id="Vector" d="M1.89 3C1.06 3 0.39 2.32 0.39 1.5C0.39 0.67 1.06 0 1.89 0C2.71 0 3.39 0.67 3.39 1.5C3.39 2.32 2.71 3 1.89 3Z" stroke="#FFFFFF" stroke-opacity="1.000000" stroke-width="1.000000" stroke-linejoin="round"/>
</svg>
