<svg width="14.000000" height="14.000000" viewBox="0 0 14 14" fill="none" xmlns="http://www.w3.org/2000/svg" xmlns:xlink="http://www.w3.org/1999/xlink">
    <desc>
        Created with Pixso.
    </desc>
    <defs/>
    <path id="Vector" d="M9.63 3.73C10.07 4.17 10.37 4.73 10.49 5.33L8.03 2.88C8.64 3 9.2 3.29 9.63 3.73ZM11.37 2C12.26 2.89 12.83 4.07 12.97 5.33L8.03 0.39C9.29 0.54 10.47 1.1 11.37 2ZM12.35 12.15C12.35 12.32 12.31 12.49 12.25 12.65C12.18 12.81 12.07 12.95 11.95 13.07C11.82 13.18 11.67 13.27 11.5 13.33C11.34 13.38 11.17 13.41 11 13.39C9.08 13.18 7.25 12.53 5.63 11.48C4.13 10.53 2.86 9.26 1.91 7.76C0.86 6.14 0.2 4.29 0 2.37C-0.02 2.2 0 2.03 0.06 1.86C0.12 1.7 0.2 1.55 0.32 1.42C0.44 1.29 0.58 1.19 0.74 1.12C0.89 1.05 1.06 1.02 1.24 1.02L3.1 1.02C3.4 1.01 3.69 1.12 3.92 1.32C4.15 1.51 4.3 1.79 4.34 2.08C4.42 2.68 4.57 3.27 4.78 3.83C4.86 4.05 4.88 4.29 4.83 4.53C4.78 4.76 4.66 4.97 4.5 5.14L3.71 5.93C4.59 7.48 5.88 8.77 7.44 9.66L8.22 8.87C8.39 8.7 8.61 8.59 8.84 8.54C9.07 8.49 9.31 8.5 9.54 8.59C10.1 8.8 10.68 8.94 11.28 9.02C11.58 9.07 11.86 9.22 12.06 9.45C12.25 9.68 12.36 9.98 12.35 10.28L12.35 12.15Z" stroke="#FFFFFF" stroke-opacity="1.000000" stroke-width="1.000000" stroke-linejoin="round"/>
</svg>
