<svg width="19.000000" height="16.000000" viewBox="0 0 19 16" fill="none" xmlns="http://www.w3.org/2000/svg" xmlns:xlink="http://www.w3.org/1999/xlink">
    <desc>
        Created with Pixso.
    </desc>
    <defs/>
    <path id="Vector" d="M15.76 1.28C15.26 0.7 14.59 0.29 13.84 0.11C13.1 -0.08 12.32 -0.03 11.6 0.24C10.88 0.51 10.27 1 9.84 1.64C9.41 2.27 9.18 3.02 9.19 3.79L9.19 4.63C7.72 4.66 6.27 4.34 4.95 3.68C3.64 3.02 2.51 2.04 1.67 0.84C1.67 0.84 -1.68 8.36 5.85 11.71C4.12 12.88 2.07 13.46 0 13.38C7.52 17.56 16.71 13.38 16.71 3.77C16.71 3.53 16.69 3.3 16.65 3.07C17.5 2.23 18.1 1.17 18.39 0C17.59 0.57 16.7 1 15.76 1.28Z" stroke="#FFFFFF" stroke-opacity="1.000000" stroke-width="1.000000" stroke-linejoin="round"/>
</svg>
