<svg width="19.000000" height="14.000000" viewBox="0 0 19 14" fill="none" xmlns="http://www.w3.org/2000/svg" xmlns:xlink="http://www.w3.org/1999/xlink">
    <desc>
        Created with Pixso.
    </desc>
    <defs/>
    <path id="Vector" d="M17.44 0.94C17.16 0.66 16.81 0.45 16.42 0.34C15.01 0 9.39 0 9.39 0C9.39 0 3.76 0 2.35 0.37C1.96 0.48 1.62 0.69 1.34 0.98C1.06 1.26 0.86 1.62 0.76 2.01C0.5 3.44 0.38 4.88 0.39 6.34C0.38 7.8 0.5 9.26 0.76 10.7C0.87 11.07 1.07 11.41 1.35 11.69C1.63 11.97 1.97 12.16 2.35 12.27C3.76 12.64 9.39 12.64 9.39 12.64C9.39 12.64 15.01 12.64 16.42 12.27C16.81 12.16 17.16 11.95 17.44 11.66C17.71 11.37 17.91 11.02 18.01 10.63C18.26 9.21 18.39 7.78 18.39 6.34C18.39 4.87 18.27 3.41 18.01 1.97C17.91 1.59 17.71 1.23 17.44 0.94Z" stroke="#FFFFFF" stroke-opacity="1.000000" stroke-width="1.000000" stroke-linejoin="round"/>
    <path id="Vector" d="M12.25 6.34L7.54 3.66L7.54 9.01L12.25 6.34Z" stroke="#FFFFFF" stroke-opacity="1.000000" stroke-width="1.000000" stroke-linejoin="round"/>
</svg>
